# xmcd
#
# Track frame offsets: 
#        150
#        11136
#        24326
#        34499
#        44925
#        55417
#        65721
#        76877
#        87522
#        98038
#        112999
#        124575
#        136335
#        150380
#        161164
#        173247
#        184690
#        196624
#        208864
#        219369
#        231618
#        243554
#        252683
#        264313
#        278160
#        289665
#        302674
#        316735
#        333430
#        343008
#
# Disc length: 4717 seconds
#
# Revision: 1
# Processed by: cddbd v1.5.2PL0 Copyright (c) Steve Scherf et al.
# Submitted via: ExactAudioCopyFreeDBPlugin 1.0
#
DISCID=be126b1e
DTITLE=Wilson Pickett - Funky Midnight Mover:  The Atlantic Studio Rec
DTITLE=ordings, 1962 - 1978 [box set]
DYEAR=2009
DGENRE=Soul
TTITLE0=Land of 1000 Dances
TTITLE1=Something You Got
TTITLE2=She Ain't Gonna Do Right
TTITLE3=She's So Good to Me
TTITLE4=Barefootin'
TTITLE5=Nothing You Can Do
TTITLE6=Mercy Mercy
TTITLE7=I Need a Lot of Loving Every Day
TTITLE8=Everybody Needs Somebody to Love
TTITLE9=Sunny
TTITLE10=New Orleans
TTITLE11=You Left the Water Running
TTITLE12=Mustang Sally
TTITLE13=Three Time Loser
TTITLE14=Ooh Poo Pah Doo
TTITLE15=Up Tight Good Woman
TTITLE16=Time is on My Side
TTITLE17=Knock on Wood
TTITLE18=Love is a Beautiful Thing
TTITLE19=Soul Dance Number Three
TTITLE20=Funky Broadway
TTITLE21=Mojo Mama
TTITLE22=I Found a Love, Part I
TTITLE23=I Found a Love, Part II
TTITLE24=I Found the One
TTITLE25=You Can't Stand Alone
TTITLE26=I'm Sorry About That
TTITLE27=Something Within Me
TTITLE28=We've Got to Have Love
TTITLE29=She's Lookin' Good
EXTD=
EXTT0=
EXTT1=
EXTT2=
EXTT3=
EXTT4=
EXTT5=
EXTT6=
EXTT7=
EXTT8=
EXTT9=
EXTT10=
EXTT11=
EXTT12=
EXTT13=
EXTT14=
EXTT15=
EXTT16=
EXTT17=
EXTT18=
EXTT19=
EXTT20=
EXTT21=
EXTT22=
EXTT23=
EXTT24=
EXTT25=
EXTT26=
EXTT27=
EXTT28=
EXTT29=
PLAYORDER=
